<?xml version="1.0" encoding="utf-8"?>
<!-- Generator: Adobe Illustrator 24.0.1, SVG Export Plug-In . SVG Version: 6.00 Build 0)  -->
<svg version="1.1" xmlns="http://www.w3.org/2000/svg" xmlns:xlink="http://www.w3.org/1999/xlink" x="0px" y="0px"
	 viewBox="0 0 374.6 24" style="enable-background:new 0 0 374.6 24;" xml:space="preserve">
<style type="text/css">
	.st0{display:none;}
	.st1{display:inline;}
	.st2{fill:none;}
	.st3{display:inline;fill:#FFFFFF;}
	.st4{fill:#AF1B3F;}
	.st5{font-family:'TitlingGothicFBNormal-Bold';}
	.st6{font-size:20px;}
</style>
<g id="Layer_1" class="st0">
	<g id="Bounding_Box" class="st1">
		<rect class="st2" width="24" height="24"/>
		<rect class="st2" width="24" height="24"/>
	</g>
	<g id="Master" class="st1">
		<path d="M19,9.3V5c0-0.6-0.5-1-1-1h-1c-0.5,0-1,0.4-1,1v1.6l-3.3-3c-0.4-0.3-1-0.3-1.3,0L3,11.1C2.6,11.4,2.8,12,3.3,12H5v7
			c0,0.5,0.4,1,1,1h3c0.6,0,1-0.5,1-1v-5h4v5c0,0.5,0.4,1,1,1h3c0.5,0,1-0.5,1-1v-7h1.7c0.5,0,0.7-0.6,0.3-0.9L19,9.3z"/>
	</g>
	<path class="st3" d="M14.1,7.8c-0.6-0.6-1.5-0.6-2.1,0l0,0l0,0c-0.6-0.6-1.5-0.6-2.1,0c-0.6,0.6-0.6,1.5,0,2.1l0,0L12,12l2.1-2.1
		l0,0C14.7,9.3,14.7,8.4,14.1,7.8z"/>
</g>
<g id="Layer_2">
	<path class="st4" d="M21,11.1l-2-1.8V5c0-0.5-0.5-1-1-1h-1c-0.5,0-1,0.5-1,1v1.6l-3.3-3c-0.4-0.3-1-0.3-1.3,0L3,11.1
		C2.6,11.4,2.8,12,3.3,12H5v7c0,0.5,0.5,1,1,1h3c0.5,0,1-0.5,1-1v-5h4v5c0,0.5,0.5,1,1,1h3c0.5,0,1-0.5,1-1v-7h1.7
		C21.2,12,21.4,11.4,21,11.1z M14.1,9.9L14.1,9.9L12,12L9.9,9.9l0,0c-0.6-0.6-0.6-1.5,0-2.1c0.3-0.3,0.6-0.4,1-0.4
		c0.2,0,0.5,0,0.7,0.1c0.2,0.1,0.3,0.2,0.4,0.3h0c0,0,0,0,0.1-0.1c0.1-0.1,0.3-0.2,0.4-0.2c0.2-0.1,0.4-0.1,0.6-0.1
		c0.4,0,0.7,0.2,1,0.4C14.7,8.4,14.7,9.3,14.1,9.9z"/>
	<rect x="25.9" y="3.6" class="st2" width="199.5" height="16.4"/>
	<text transform="matrix(1 0 0 1 25.8701 19.54)" class="st4 st5 st6">Ho-Ho-Holiday</text>
</g>
</svg>
